<svg xmlns="http://www.w3.org/2000/svg" xmlns:xlink="http://www.w3.org/1999/xlink" width="1024" zoomAndPan="magnify" viewBox="0 0 768 767.999994" height="1024" preserveAspectRatio="xMidYMid meet" version="1.0"><defs><clipPath id="60c9886b1d"><path d="M 156.480469 564 L 486 564 L 486 755 L 156.480469 755 Z M 156.480469 564 " clip-rule="nonzero"/></clipPath><clipPath id="ffa9f04ae7"><path d="M 448 391 L 611.730469 391 L 611.730469 754 L 448 754 Z M 448 391 " clip-rule="nonzero"/></clipPath><clipPath id="a7b29857a6"><path d="M 377 13.292969 L 408 13.292969 L 408 89 L 377 89 Z M 377 13.292969 " clip-rule="nonzero"/></clipPath></defs><g clip-path="url(#60c9886b1d)"><path fill="#ffffff" d="M 273.503906 613.1875 C 310.5 639.191406 349.199219 662.257812 393.160156 676.03125 C 391.921875 674.328125 390.683594 672.78125 389.601562 671.078125 C 377.988281 652.195312 366.378906 633.308594 354.925781 614.425781 C 353.6875 612.414062 352.292969 610.089844 356.785156 609.472656 C 387.433594 666.28125 428.609375 713.648438 485.570312 746 C 484.796875 747.546875 484.332031 748.785156 483.714844 749.867188 C 482.785156 751.417969 481.855469 752.964844 480.773438 754.824219 C 477.367188 752.65625 474.117188 751.109375 471.332031 748.785156 C 463.902344 742.59375 455.386719 740.425781 445.945312 738.878906 C 381.394531 728.664062 322.574219 703.894531 268.707031 667.363281 C 226.910156 639.347656 190.226562 605.445312 158.027344 566.75 C 157.410156 565.972656 156.789062 565.199219 156.480469 564.117188 C 235.890625 649.71875 329.074219 711.171875 445.324219 732.996094 C 445.636719 732.53125 446.101562 731.914062 446.410156 731.449219 C 445.324219 730.363281 444.242188 729.4375 443.160156 728.351562 C 430 715.351562 417 702.191406 403.6875 689.191406 C 401.671875 687.179688 399.195312 685.164062 396.566406 684.238281 C 351.519531 668.914062 311.273438 644.917969 274.277344 615.355469 C 273.8125 614.890625 273.195312 614.734375 272.574219 614.269531 C 272.886719 613.960938 273.195312 613.652344 273.503906 613.1875 Z M 273.503906 613.1875 " fill-opacity="1" fill-rule="nonzero"/></g><path fill="#ffffff" d="M 491.300781 26.519531 C 485.726562 31.628906 480.15625 36.734375 474.738281 42 C 466.6875 49.894531 458.792969 57.941406 451.054688 66.144531 C 449.503906 67.847656 448.578125 70.324219 447.957031 72.492188 C 440.683594 96.949219 432.324219 120.480469 408.640625 134.410156 C 400.125 139.363281 391.457031 144.316406 381.707031 150.042969 C 381.707031 146.792969 381.394531 144.625 381.707031 142.460938 C 383.097656 134.101562 384.335938 125.742188 386.039062 117.539062 C 390.839844 95.867188 406.472656 83.328125 424.582031 73.265625 C 430.3125 70.171875 436.8125 68.46875 443.003906 65.992188 C 444.707031 65.21875 446.410156 64.132812 447.800781 62.894531 C 460.648438 51.597656 473.34375 40.296875 486.035156 28.996094 C 487.429688 27.757812 488.976562 26.828125 490.371094 25.746094 C 490.835938 26.054688 490.988281 26.210938 491.300781 26.519531 Z M 491.300781 26.519531 " fill-opacity="1" fill-rule="nonzero"/><path fill="#ffffff" d="M 269.945312 328.984375 C 271.027344 331.152344 271.648438 331.925781 271.800781 332.855469 C 274.433594 345.546875 280.316406 357.003906 287.28125 367.527344 C 299.046875 385.175781 303.378906 404.679688 302.914062 425.421875 C 302.761719 430.839844 302.914062 436.257812 302.914062 442.449219 C 301.058594 441.367188 299.820312 440.902344 298.890625 440.128906 C 292.542969 434.863281 286.195312 429.601562 280.160156 424.027344 C 268.550781 413.347656 262.667969 399.726562 261.585938 384.09375 C 260.5 368.769531 261.585938 353.597656 265.765625 338.890625 C 266.539062 335.953125 268.242188 333.011719 269.945312 328.984375 Z M 269.945312 328.984375 " fill-opacity="1" fill-rule="nonzero"/><path fill="#ffffff" d="M 318.550781 530.992188 C 298.269531 520.773438 277.839844 510.867188 269.945312 487.183594 C 263.441406 467.679688 260.191406 448.023438 264.527344 427.742188 C 264.992188 427.589844 265.453125 427.589844 265.917969 427.433594 C 266.539062 428.363281 267.3125 429.136719 267.777344 430.066406 C 272.886719 441.054688 279.851562 450.652344 288.675781 458.859375 C 309.105469 478.050781 315.609375 502.972656 319.167969 529.289062 C 319.167969 529.753906 319.011719 530.0625 318.550781 530.992188 Z M 318.550781 530.992188 " fill-opacity="1" fill-rule="nonzero"/><path fill="#ffffff" d="M 278.457031 514.738281 C 279.230469 515.355469 280.003906 515.820312 280.625 516.441406 C 288.054688 527.121094 297.652344 535.789062 308.332031 543.21875 C 326.132812 555.292969 336.503906 572.628906 343.78125 592.289062 C 345.484375 596.933594 347.1875 601.578125 349.351562 607.613281 C 328.765625 601.421875 308.953125 596.625 296.570312 578.511719 C 283.566406 559.472656 277.0625 538.265625 277.0625 515.203125 C 277.527344 515.046875 277.992188 514.894531 278.457031 514.738281 Z M 278.457031 514.738281 " fill-opacity="1" fill-rule="nonzero"/><g clip-path="url(#ffa9f04ae7)"><path fill="#ffffff" d="M 470.402344 681.605469 C 485.417969 569.226562 538.976562 475.421875 611.730469 391.367188 C 605.539062 399.417969 599.191406 407.464844 593.152344 415.515625 C 557.550781 463.035156 527.058594 513.5 505.230469 568.914062 C 490.214844 607.148438 480 646.621094 475.046875 687.332031 C 474.425781 692.59375 474.890625 697.394531 477.367188 702.191406 C 484.179688 715.816406 490.679688 729.589844 497.335938 743.214844 C 498.109375 744.761719 499.039062 746.308594 499.96875 748.320312 C 497.027344 750.023438 494.550781 751.417969 491.300781 753.121094 C 489.132812 748.941406 486.964844 745.070312 485.109375 741.046875 C 468.082031 705.132812 456.472656 667.363281 449.351562 628.203125 C 449.195312 627.273438 448.886719 626.1875 449.039062 625.261719 C 449.195312 624.175781 449.96875 623.25 450.589844 622.320312 C 451.363281 623.09375 452.601562 623.867188 452.910156 624.796875 C 455.386719 634.082031 457.398438 643.527344 460.03125 652.660156 C 462.816406 662.257812 466.066406 671.851562 469.007812 681.449219 C 469.472656 681.605469 469.9375 681.605469 470.402344 681.605469 Z M 470.402344 681.605469 " fill-opacity="1" fill-rule="nonzero"/></g><path fill="#ffffff" d="M 293.472656 241.992188 C 293.78125 245.398438 293.628906 248.800781 294.402344 252.054688 C 296.722656 261.1875 298.425781 270.472656 301.984375 279.140625 C 310.035156 298.800781 310.191406 318.769531 305.546875 339.046875 C 304.460938 343.535156 303.535156 348.023438 302.140625 353.90625 C 288.519531 338.273438 274.898438 323.722656 274.585938 302.515625 C 274.125 280.691406 279.539062 260.101562 291.613281 241.683594 C 292.234375 241.835938 292.851562 241.992188 293.472656 241.992188 Z M 293.472656 241.992188 " fill-opacity="1" fill-rule="nonzero"/><path fill="#ffffff" d="M 345.019531 422.328125 C 350.902344 434.863281 351.210938 447.710938 352.757812 460.40625 C 356.320312 487.648438 341.304688 507.617188 325.515625 528.359375 C 323.039062 520 320.097656 511.640625 318.085938 503.128906 C 314.058594 485.792969 317.3125 469.847656 326.753906 454.679688 C 332.636719 445.234375 337.433594 434.863281 342.851562 424.957031 C 343.316406 424.339844 343.78125 423.71875 345.019531 422.328125 Z M 345.019531 422.328125 " fill-opacity="1" fill-rule="nonzero"/><path fill="#ffffff" d="M 355.855469 604.363281 C 345.328125 587.800781 336.816406 572.011719 338.054688 553.28125 C 338.519531 546.160156 340.683594 539.039062 342.851562 532.074219 C 346.257812 520.929688 350.128906 509.785156 353.84375 498.640625 C 354.152344 497.867188 354.617188 497.246094 355.699219 495.542969 C 364.679688 509.785156 368.082031 524.953125 371.335938 540.277344 C 376.289062 563.808594 364.058594 582.847656 355.855469 604.363281 Z M 355.855469 604.363281 " fill-opacity="1" fill-rule="nonzero"/><path fill="#ffffff" d="M 310.34375 441.054688 C 305.238281 416.445312 303.378906 392.761719 322.109375 372.328125 C 330.625 363.039062 338.363281 353.289062 346.566406 343.691406 C 347.03125 343.070312 347.804688 342.609375 349.199219 341.371094 C 352.449219 357.46875 349.972656 372.484375 347.652344 387.496094 C 344.089844 411.492188 325.824219 425.113281 310.34375 441.054688 Z M 310.34375 441.054688 " fill-opacity="1" fill-rule="nonzero"/><path fill="#ffffff" d="M 329.382812 165.679688 C 329.382812 172.644531 328.921875 179.457031 329.539062 186.265625 C 330.160156 193.542969 331.398438 200.660156 332.789062 207.78125 C 336.195312 223.570312 333.253906 238.742188 327.683594 253.445312 C 325.359375 259.636719 322.730469 265.675781 318.703125 272.949219 C 318.550781 272.175781 318.394531 271.246094 318.085938 270.472656 C 313.441406 260.566406 308.332031 250.96875 304.152344 240.90625 C 299.355469 229.144531 301.832031 217.070312 305.390625 205.304688 C 309.261719 192.765625 314.988281 181.003906 322.882812 170.476562 C 324.429688 168.464844 326.445312 166.761719 328.144531 164.90625 C 328.609375 165.214844 329.074219 165.367188 329.382812 165.679688 Z M 329.382812 165.679688 " fill-opacity="1" fill-rule="nonzero"/><path fill="#ffffff" d="M 378.453125 89.054688 C 378.300781 91.222656 378.300781 92.460938 378.144531 93.542969 C 377.214844 103.761719 374.894531 113.976562 375.511719 124.039062 C 376.597656 143.078125 371.953125 160.105469 362.046875 176.050781 C 358.796875 181.3125 355.546875 186.730469 351.675781 192.921875 C 346.722656 181.3125 343.78125 170.476562 341.769531 159.332031 C 339.601562 146.640625 343.625 135.339844 349.199219 124.503906 C 355.082031 113.046875 362.511719 102.367188 372.109375 93.542969 C 373.964844 91.996094 375.824219 90.914062 378.453125 89.054688 Z M 378.453125 89.054688 " fill-opacity="1" fill-rule="nonzero"/><path fill="#ffffff" d="M 367.617188 267.53125 C 367.15625 285.179688 362.046875 300.96875 355.082031 316.136719 C 346.566406 334.867188 328.300781 342.761719 312.511719 354.679688 C 312.203125 352.359375 311.894531 351.121094 311.894531 350.039062 C 312.046875 334.402344 313.75 319.078125 322.882812 305.921875 C 326.445312 300.8125 331.085938 296.324219 335.730469 292.300781 C 345.792969 283.941406 356.320312 276.199219 367.617188 267.53125 Z M 367.617188 267.53125 " fill-opacity="1" fill-rule="nonzero"/><path fill="#ffffff" d="M 496.097656 288.121094 C 486.5 271.09375 489.441406 246.789062 503.0625 234.5625 C 509.101562 229.144531 516.6875 225.429688 523.496094 220.941406 C 525.199219 219.855469 526.902344 218.464844 527.984375 216.761719 C 536.035156 204.066406 544.085938 191.375 552.753906 178.992188 C 552.289062 179.917969 551.824219 181.003906 551.359375 181.933594 C 544.859375 194.316406 538.046875 206.699219 531.699219 219.238281 C 530.773438 221.09375 530.773438 223.570312 531.238281 225.738281 C 533.714844 238.894531 532.628906 251.742188 527.519531 264.128906 C 527.058594 265.367188 526.28125 266.449219 525.507812 267.53125 C 517.460938 276.976562 506.625 282.238281 496.097656 288.121094 Z M 496.097656 288.121094 " fill-opacity="1" fill-rule="nonzero"/><path fill="#ffffff" d="M 327.0625 275.273438 C 331.242188 253.601562 336.96875 233.941406 356.007812 222.179688 C 368.394531 214.59375 381.394531 208.09375 394.863281 200.660156 C 392.851562 215.832031 385.574219 228.371094 378.300781 240.90625 C 367.15625 260.566406 346.722656 266.140625 327.0625 275.273438 Z M 327.0625 275.273438 " fill-opacity="1" fill-rule="nonzero"/><path fill="#ffffff" d="M 359.722656 195.707031 C 364.058594 184.71875 369.167969 174.5 376.289062 165.367188 C 382.632812 157.011719 390.683594 151.59375 400.746094 148.339844 C 412.820312 144.472656 424.738281 139.984375 437.742188 135.339844 C 434.179688 147.257812 427.371094 156.699219 419.9375 165.832031 C 405.390625 183.945312 382.945312 195.089844 359.722656 195.707031 Z M 359.722656 195.707031 " fill-opacity="1" fill-rule="nonzero"/><path fill="#ffffff" d="M 445.945312 620.152344 C 428.761719 611.792969 409.878906 607.148438 402.757812 587.179688 C 397.957031 573.558594 396.566406 559.472656 401.671875 545.078125 C 403.066406 545.695312 403.6875 545.695312 403.839844 546.160156 C 410.03125 556.222656 418.546875 563.960938 427.679688 571.238281 C 443.160156 583.464844 446.410156 600.339844 445.945312 620.152344 Z M 445.945312 620.152344 " fill-opacity="1" fill-rule="nonzero"/><path fill="#ffffff" d="M 438.515625 562.257812 C 423.035156 552.351562 405.542969 545.695312 400.125 526.039062 C 396.101562 511.175781 398.113281 490.589844 404.148438 483.625 C 404.769531 484.242188 405.699219 484.707031 406.164062 485.480469 C 412.972656 494.304688 419.164062 503.746094 426.59375 511.953125 C 438.359375 525.109375 443.933594 545.542969 438.515625 562.257812 Z M 438.515625 562.257812 " fill-opacity="1" fill-rule="nonzero"/><path fill="#ffffff" d="M 412.507812 416.597656 C 420.714844 429.136719 428.453125 440.902344 436.191406 452.820312 C 444.085938 465.050781 443.160156 478.363281 440.835938 491.671875 C 440.527344 493.6875 439.90625 495.699219 439.132812 498.792969 C 424.894531 487.339844 408.328125 478.824219 405.078125 459.320312 C 402.601562 444.308594 404.460938 429.601562 412.507812 416.597656 Z M 412.507812 416.597656 " fill-opacity="1" fill-rule="nonzero"/><path fill="#ffffff" d="M 447.339844 561.949219 C 442.074219 548.171875 442.539062 527.894531 453.996094 517.214844 C 458.792969 512.726562 463.902344 508.390625 468.855469 504.058594 C 473.652344 499.566406 478.453125 495.078125 484.179688 489.816406 C 484.953125 493.222656 486.5 496.472656 486.5 499.878906 C 486.5 507.308594 486.191406 514.738281 485.109375 522.011719 C 483.714844 530.835938 479.226562 538.113281 471.949219 543.53125 C 463.746094 549.566406 455.695312 555.601562 447.339844 561.949219 Z M 447.339844 561.949219 " fill-opacity="1" fill-rule="nonzero"/><path fill="#ffffff" d="M 428.296875 354.992188 C 429.382812 355.765625 429.847656 355.917969 430 356.074219 C 435.726562 367.839844 441.457031 379.757812 447.339844 391.523438 C 454.613281 406.382812 451.054688 420.625 445.480469 436.101562 C 432.324219 422.636719 416.378906 411.953125 416.84375 391.058594 C 417 378.210938 419.785156 365.671875 428.296875 354.992188 Z M 428.296875 354.992188 " fill-opacity="1" fill-rule="nonzero"/><path fill="#ffffff" d="M 492.226562 431.921875 C 492.691406 433.625 493.464844 435.328125 493.464844 437.03125 C 493.621094 456.84375 490.214844 475.109375 470.867188 485.945312 C 463.128906 490.28125 455.386719 494.613281 447.492188 498.949219 C 442.230469 484.398438 448.113281 464.121094 460.03125 454.832031 C 469.9375 447.09375 480.15625 439.816406 490.214844 432.386719 C 490.679688 431.921875 491.144531 432.078125 492.226562 431.921875 Z M 492.226562 431.921875 " fill-opacity="1" fill-rule="nonzero"/><path fill="#ffffff" d="M 453.53125 619.070312 C 447.957031 602.816406 445.015625 588.265625 454.921875 574.179688 C 457.710938 570.308594 461.269531 566.902344 464.367188 563.34375 C 470.246094 556.6875 475.976562 549.875 482.785156 542.136719 C 484.179688 546.625 486.191406 550.496094 486.5 554.519531 C 487.121094 562.105469 487.894531 569.84375 486.5 577.121094 C 485.417969 583.15625 482.632812 589.65625 478.605469 594.300781 C 471.175781 602.96875 462.507812 610.398438 453.53125 619.070312 Z M 453.53125 619.070312 " fill-opacity="1" fill-rule="nonzero"/><path fill="#ffffff" d="M 450.898438 300.347656 C 451.515625 302.671875 451.671875 305.148438 452.601562 307.316406 C 455.851562 315.363281 458.792969 323.722656 462.664062 331.460938 C 470.710938 347.714844 467.304688 362.886719 459.101562 378.984375 C 448.578125 366.445312 435.882812 356.074219 435.417969 338.582031 C 435.109375 324.03125 439.90625 311.03125 449.039062 299.882812 C 449.660156 300.195312 450.277344 300.347656 450.898438 300.347656 Z M 450.898438 300.347656 " fill-opacity="1" fill-rule="nonzero"/><path fill="#ffffff" d="M 455.078125 437.652344 C 455.078125 420.625 457.710938 405.761719 472.722656 396.628906 C 483.09375 390.285156 493.777344 384.402344 504.921875 377.902344 C 505.230469 379.140625 506.003906 380.6875 505.851562 382.390625 C 505.230469 398.953125 500.121094 420.003906 477.214844 428.671875 C 470.09375 431.304688 462.972656 434.398438 455.078125 437.652344 Z M 455.078125 437.652344 " fill-opacity="1" fill-rule="nonzero"/><path fill="#ffffff" d="M 477.523438 321.246094 C 467.152344 305.765625 453.53125 292.765625 458.484375 272.484375 C 461.113281 261.1875 465.605469 250.816406 474.117188 242.921875 C 474.738281 243.074219 475.199219 243.230469 475.820312 243.386719 C 476.285156 246.171875 476.4375 249.113281 477.367188 251.898438 C 479.535156 259.175781 481.546875 266.605469 484.644531 273.414062 C 492.382812 290.597656 485.882812 305.457031 477.523438 321.246094 Z M 477.523438 321.246094 " fill-opacity="1" fill-rule="nonzero"/><path fill="#ffffff" d="M 521.175781 327.902344 C 520.402344 332.546875 519.9375 337.191406 518.699219 341.679688 C 514.363281 357.621094 505.851562 369.695312 488.976562 374.339844 C 481.855469 376.351562 474.890625 378.675781 467.769531 380.996094 C 465.605469 366.910156 474.273438 350.039062 486.964844 343.382812 C 494.242188 339.511719 501.980469 336.570312 509.410156 332.855469 C 512.972656 331.152344 516.066406 328.984375 519.472656 326.972656 C 519.9375 327.28125 520.554688 327.59375 521.175781 327.902344 Z M 521.175781 327.902344 " fill-opacity="1" fill-rule="nonzero"/><path fill="#ffffff" d="M 486.347656 324.03125 C 487.738281 305.613281 497.957031 292.144531 513.898438 286.574219 C 523.34375 283.167969 532.628906 279.296875 543.15625 275.273438 C 542.691406 285.644531 538.667969 294.3125 533.402344 302.671875 C 522.722656 320.164062 503.835938 319.386719 486.347656 324.03125 Z M 486.347656 324.03125 " fill-opacity="1" fill-rule="nonzero"/><path fill="#ffffff" d="M 400.898438 543.066406 C 389.289062 535.945312 375.667969 505.140625 367 468.453125 C 363.75 477.742188 361.117188 485.945312 358.332031 494.148438 C 357.867188 494.148438 357.402344 493.996094 356.9375 493.996094 C 356.785156 493.066406 356.320312 492.136719 356.472656 491.210938 C 356.628906 490.125 357.09375 489.042969 357.558594 487.957031 C 363.285156 472.632812 367.929688 457.308594 365.761719 440.589844 C 365.453125 438.890625 365.761719 437.03125 366.378906 435.175781 C 366.84375 440.589844 367.15625 445.855469 367.617188 451.273438 C 367.929688 451.273438 368.082031 451.425781 368.394531 451.425781 C 368.855469 450.1875 369.476562 448.949219 369.785156 447.558594 C 371.332031 442.140625 372.574219 436.722656 374.273438 431.304688 C 377.0625 422.328125 377.988281 413.503906 377.214844 403.90625 C 376.441406 393.070312 377.527344 382.234375 377.835938 371.398438 C 378.300781 371.398438 378.765625 371.398438 379.226562 371.398438 C 379.226562 382.855469 379.226562 394.152344 379.226562 405.609375 C 379.691406 405.609375 380.15625 405.761719 380.621094 405.761719 C 383.097656 396.011719 385.421875 386.105469 387.898438 376.351562 C 388.050781 376.351562 388.359375 376.351562 388.515625 376.351562 C 388.207031 379.140625 387.898438 381.925781 387.277344 384.554688 C 385.882812 391.675781 384.644531 398.953125 382.789062 405.917969 C 380.621094 413.347656 381.085938 420.46875 382.789062 427.898438 C 386.8125 445.390625 392.386719 462.261719 401.671875 477.898438 C 402.136719 478.824219 402.449219 479.910156 402.136719 481.300781 C 397.339844 476.660156 394.398438 470.621094 391.765625 464.585938 C 389.136719 458.394531 386.660156 452.046875 384.644531 445.546875 C 382.480469 439.042969 381.085938 432.234375 378.917969 424.492188 C 377.988281 428.207031 377.214844 430.839844 376.597656 433.472656 C 375.511719 437.652344 374.894531 441.984375 373.191406 445.855469 C 367.617188 458.703125 369.632812 471.242188 373.191406 484.089844 C 378.765625 504.058594 386.660156 522.789062 399.195312 539.503906 C 399.816406 540.589844 400.28125 541.828125 400.898438 543.066406 Z M 400.898438 543.066406 " fill-opacity="1" fill-rule="nonzero"/><path fill="#ffffff" d="M 238.210938 269.855469 C 230.78125 324.1875 237.902344 376.199219 263.597656 425.265625 C 240.070312 404.214844 225.054688 309.480469 238.210938 269.855469 Z M 238.210938 269.855469 " fill-opacity="1" fill-rule="nonzero"/><path fill="#ffffff" d="M 222.265625 361.183594 C 223.816406 374.804688 224.742188 388.582031 227.21875 402.046875 C 229.695312 415.515625 233.101562 428.980469 237.589844 441.832031 C 242.082031 454.523438 247.652344 467.0625 254 478.980469 C 260.347656 490.589844 268.242188 501.425781 274.585938 512.878906 C 237.902344 468.917969 221.957031 417.683594 222.265625 361.183594 Z M 222.265625 361.183594 " fill-opacity="1" fill-rule="nonzero"/><path fill="#ffffff" d="M 271.800781 187.195312 C 263.289062 209.949219 259.882812 233.476562 259.417969 257.625 C 258.953125 281.308594 262.976562 304.527344 268.859375 327.59375 C 251.214844 304.375 253.378906 218.464844 271.800781 187.195312 Z M 271.800781 187.195312 " fill-opacity="1" fill-rule="nonzero"/><path fill="#ffffff" d="M 314.058594 112.121094 C 294.246094 152.058594 288.210938 194.625 291.304688 238.894531 C 284.339844 194.003906 291.613281 151.59375 314.058594 112.121094 Z M 314.058594 112.121094 " fill-opacity="1" fill-rule="nonzero"/><path fill="#ffffff" d="M 328.144531 161.964844 C 328.144531 119.085938 340.683594 80.386719 366.691406 46.179688 C 343.160156 81.316406 331.707031 120.324219 328.144531 161.964844 Z M 328.144531 161.964844 " fill-opacity="1" fill-rule="nonzero"/><path fill="#ffffff" d="M 397.339844 318.304688 C 383.71875 353.90625 366.535156 387.808594 348.113281 421.242188 C 347.652344 421.085938 347.1875 421.085938 346.722656 420.933594 C 346.722656 419.847656 346.414062 418.609375 346.722656 417.835938 C 363.59375 384.710938 380.46875 351.585938 397.339844 318.304688 Z M 397.339844 318.304688 " fill-opacity="1" fill-rule="nonzero"/><path fill="#ffffff" d="M 414.832031 254.21875 C 398.734375 286.574219 375.824219 313.972656 352.292969 341.058594 C 351.828125 340.90625 351.367188 340.59375 350.902344 340.441406 C 351.519531 339.046875 351.828125 337.5 352.757812 336.414062 C 366.226562 319.386719 380.003906 302.671875 393.160156 285.488281 C 400.746094 275.425781 407.554688 264.746094 414.832031 254.21875 Z M 414.832031 254.21875 " fill-opacity="1" fill-rule="nonzero"/><path fill="#ffffff" d="M 369.632812 266.449219 C 394.863281 243.386719 421.179688 221.558594 443.3125 195.242188 C 437.894531 208.246094 389.753906 255.457031 369.632812 266.449219 Z M 369.632812 266.449219 " fill-opacity="1" fill-rule="nonzero"/><path fill="#ffffff" d="M 411.582031 414.121094 C 395.945312 383.007812 390.21875 350.503906 399.972656 316.292969 C 396.566406 332.855469 396.875 349.574219 399.195312 366.445312 C 401.363281 382.855469 406.628906 398.488281 411.582031 414.121094 Z M 411.582031 414.121094 " fill-opacity="1" fill-rule="nonzero"/><path fill="#ffffff" d="M 481.394531 138.433594 C 457.710938 164.75 428.453125 183.480469 398.269531 200.972656 C 397.957031 200.660156 397.496094 200.199219 397.183594 199.886719 C 397.957031 198.960938 398.578125 198.03125 399.507812 197.410156 C 417.925781 185.183594 436.65625 173.261719 454.769531 160.726562 C 462.816406 155.152344 469.9375 148.496094 477.367188 142.148438 C 478.761719 140.757812 480 139.671875 481.394531 138.433594 Z M 481.394531 138.433594 " fill-opacity="1" fill-rule="nonzero"/><path fill="#ffffff" d="M 423.964844 260.414062 C 415.296875 291.679688 419.164062 322.328125 428.296875 352.667969 C 415.605469 341.214844 412.972656 279.917969 423.964844 260.414062 Z M 423.964844 260.414062 " fill-opacity="1" fill-rule="nonzero"/><path fill="#ffffff" d="M 485.726562 488.578125 C 506.003906 466.441406 524.425781 442.757812 539.132812 416.445312 C 527.058594 444.769531 508.636719 468.300781 485.726562 488.578125 Z M 485.726562 488.578125 " fill-opacity="1" fill-rule="nonzero"/><path fill="#ffffff" d="M 493.777344 430.375 C 503.835938 420.777344 514.519531 411.644531 523.960938 401.429688 C 533.25 391.367188 541.296875 380.066406 549.347656 369.851562 C 537.582031 395.238281 517.304688 414.121094 495.015625 431.457031 C 494.550781 431.148438 494.085938 430.683594 493.777344 430.375 Z M 493.777344 430.375 " fill-opacity="1" fill-rule="nonzero"/><path fill="#ffffff" d="M 452.292969 207.78125 C 441.300781 238.277344 442.847656 267.996094 449.503906 297.871094 C 438.050781 285.179688 439.90625 225.429688 452.292969 207.78125 Z M 452.292969 207.78125 " fill-opacity="1" fill-rule="nonzero"/><path fill="#ffffff" d="M 529.378906 464.121094 C 520.089844 493.222656 504.613281 518.761719 484.179688 541.363281 C 502.136719 517.371094 517.460938 491.828125 529.378906 464.121094 Z M 529.378906 464.121094 " fill-opacity="1" fill-rule="nonzero"/><path fill="#ffffff" d="M 564.980469 322.484375 C 558.480469 338.117188 522.414062 373.257812 506.160156 377.125 C 517.613281 367.839844 528.761719 360.097656 538.511719 350.8125 C 548.417969 341.523438 557.085938 330.996094 564.980469 322.484375 Z M 564.980469 322.484375 " fill-opacity="1" fill-rule="nonzero"/><path fill="#ffffff" d="M 522.105469 326.199219 C 532.9375 318.769531 544.085938 311.957031 554.300781 303.753906 C 564.515625 295.550781 573.648438 285.796875 581.542969 278.367188 C 577.675781 291.0625 541.917969 319.699219 522.105469 326.199219 Z M 522.105469 326.199219 " fill-opacity="1" fill-rule="nonzero"/><g clip-path="url(#a7b29857a6)"><path fill="#ffffff" d="M 407.710938 13.515625 C 392.539062 35.808594 379.847656 59.335938 377.988281 88.4375 C 372.882812 74.039062 390.683594 29.925781 407.710938 13.515625 Z M 407.710938 13.515625 " fill-opacity="1" fill-rule="nonzero"/></g><path fill="#ffffff" d="M 476.4375 177.132812 C 469.78125 198.03125 466.6875 219.082031 474.582031 241.683594 C 465.449219 231.15625 466.378906 196.328125 476.4375 177.132812 Z M 476.4375 177.132812 " fill-opacity="1" fill-rule="nonzero"/><path fill="#ffffff" d="M 439.90625 135.648438 C 458.949219 130.539062 475.820312 120.941406 492.847656 111.964844 C 476.75 122.957031 459.722656 132.554688 439.90625 135.648438 Z M 439.90625 135.648438 " fill-opacity="1" fill-rule="nonzero"/><path fill="#ffffff" d="M 545.167969 275.273438 C 559.410156 270.472656 571.636719 262.269531 583.246094 252.980469 C 572.722656 263.972656 560.492188 272.175781 545.167969 275.273438 Z M 545.167969 275.273438 " fill-opacity="1" fill-rule="nonzero"/></svg>